<svg xmlns="http://www.w3.org/2000/svg" viewBox="0 0 309.5 92"><defs><style>.cls-12{fill:#231f20}</style></defs><g style="isolation:isolate"><g id="Layer_1" data-name="Layer 1"><path d="M46 90.39a12.38 12.38 0 0 1-11.8-16.12 12.46 12.46 0 0 1-2.2 2.9 12.38 12.38 0 1 1-14.78-19.55 12.38 12.38 0 1 1 0-23.84 12.4 12.4 0 0 1-2.68-19.55A12.38 12.38 0 0 1 34 16.77a12.38 12.38 0 1 1 24 0 12.48 12.48 0 0 1 2-2.54 12.38 12.38 0 1 1 14.77 19.55 12.38 12.38 0 1 1 0 23.84 12.39 12.39 0 0 1 2.68 19.55 12.38 12.38 0 0 1-19.67-2.92A12.38 12.38 0 0 1 46 90.39z" fill="#fff"/><g style="mix-blend-mode:multiply"><path d="M34.19 22A11 11 0 1 0 31 30.73a3.16 3.16 0 1 1 0 4.47v-.08a13.43 13.43 0 0 1-7.78 2.14 11 11 0 1 0 11-15.25zm-8.68 3.18a3.16 3.16 0 1 1 0-4.47 3.16 3.16 0 0 1 .01 4.51z" fill="#e871ab"/><path d="M20.92 37.32a11 11 0 1 0 3.9 8.38A3.16 3.16 0 1 1 28 48.86h-.1a13.42 13.42 0 0 1-4 7 11 11 0 1 0-3-18.56zM17 45.7a3.16 3.16 0 1 1-3.16-3.16A3.16 3.16 0 0 1 17 45.7z" fill="#f47929"/><path d="M22.34 57.51A11 11 0 1 0 31 60.67a3.16 3.16 0 1 1 4.46 0l-.08.06a13.42 13.42 0 0 1 2.14 7.78 11 11 0 1 0-15.25-11zm3.18 8.68a3.16 3.16 0 1 1-4.47 0 3.16 3.16 0 0 1 4.47-.01z" fill="#00b3b0"/><path d="M37.61 71A11 11 0 1 0 46 67.06a3.16 3.16 0 1 1 3.16-3.16v.1a13.43 13.43 0 0 1 7 4 11 11 0 1 0-18.56 3zM46 74.85A3.16 3.16 0 1 1 42.84 78 3.16 3.16 0 0 1 46 74.85z" fill="#9161a8"/><path d="M57.8 69.36a11 11 0 1 0 3.2-8.69 3.16 3.16 0 1 1 0-4.47l.06.08a13.43 13.43 0 0 1 7.78-2.14 11 11 0 1 0-11 15.25zm8.68-3.18a3.16 3.16 0 1 1 0 4.47 3.16 3.16 0 0 1 0-4.47z" fill="#f05674"/><path d="M71.08 54.08a11 11 0 1 0-3.9-8.38A3.16 3.16 0 1 1 64 42.54h.1a13.41 13.41 0 0 1 4-7 11 11 0 1 0 3 18.56zM75 45.7a3.16 3.16 0 1 1 3.16 3.16A3.16 3.16 0 0 1 75 45.7z" fill="#fdb515"/><path d="M69.66 33.9A11 11 0 1 0 61 30.73a3.16 3.16 0 1 1-4.47 0l.08-.06a13.43 13.43 0 0 1-2.14-7.78 11 11 0 1 0 15.25 11zm-3.18-8.68a3.16 3.16 0 1 1 4.47 0 3.16 3.16 0 0 1-4.47 0z" fill="#60bd68"/><path d="M54.38 20.81A11 11 0 1 0 46 24.72a3.16 3.16 0 1 1-3.16 3.16v-.1a13.43 13.43 0 0 1-7-4 11 11 0 1 0 18.56-3zM46 16.92a3.16 3.16 0 1 1 3.16-3.16A3.16 3.16 0 0 1 46 16.92z" fill="#58b6e7"/></g><path class="cls-12" d="M127.43 42v1.34a13.54 13.54 0 0 1-27.09.3c0-7.6 6.11-13.1 13.61-13.1 6.09 0 11.31 4.09 12.72 9h-7.29a6.25 6.25 0 0 0-5.61-3.3 7 7 0 0 0-6.95 7.39c0 5.34 3.79 7.64 7 7.64s5.39-1.62 6.08-4.09h-5.8V42zM129 31.26h5.75v25.39H129zm29.29 25.39h-5.76V54h-.08c-1 2-3.57 2.91-6 2.91-6.47 0-10.25-5.07-10.25-10.91 0-6.69 4.81-10.88 10.25-10.88 3.35 0 5.22 1.61 6 2.87h.08v-2.4h5.76zm-10.88-5.41a5.2 5.2 0 1 0-5.08-5.15 5 5 0 0 0 5.09 5.15zm79.84-15.59l3.15 13.05h.07l3.45-13.05h5.3l3.48 13.05h.08l3.14-13.05h6.47l-6.43 21h-5.84l-3.51-12.83h-.08L233 56.65h-5.83l-6.43-21zm-64.5 14.23a7.74 7.74 0 0 0 4.64 2c1.7 0 2.75-.72 2.75-1.66 0-1.25-1.18-1.33-3.39-1.89-4.32-1.09-6.38-2.79-6.38-6.34 0-3.88 3.07-6.86 8-6.86a10.37 10.37 0 0 1 6.94 2.78l-3.52 3.51a5.48 5.48 0 0 0-3.27-1.29c-1.41 0-2.17.56-2.17 1.38 0 1.45 2.1 1.53 4.88 2.33 3.23.93 4.85 2.87 4.85 5.78 0 4.19-3.35 7.3-8.56 7.3a12.64 12.64 0 0 1-7.91-2.9zm47.91-14.74c6.6 0 11.22 4.58 11.22 10.9s-4.62 10.9-11.22 10.9S199.4 52.31 199.4 46s4.6-10.86 11.26-10.86zm0 15.72a4.89 4.89 0 1 0 0-9.78 4.89 4.89 0 1 0 0 9.78zM255 31.31h2.61V49.4c0 1.94.08 5.1 5.2 5.1v2.41c-7.52-.08-7.74-4.84-7.82-7.66zM282.65 47a8.26 8.26 0 0 0 8.05 7.52 7.85 7.85 0 0 0 7.44-4.89H301a10.43 10.43 0 1 1 .64-3.38v.76zm16.22-2.39a8.18 8.18 0 0 0-16.22 0zm-33.49-9H268v21h-2.6z"/><ellipse class="cls-12" cx="266.68" cy="31.91" rx="1.94" ry="1.94"/><path class="cls-12" d="M281.07 30.83v-2.41c-7.09.07-7.69 4.31-7.8 7.17h-2.81V38h2.8v18.7h2.6V38h5.2v-2.41h-5.2c.02-1.94.36-4.76 5.21-4.76zm-82.86 14.26a9 9 0 0 0-1.73-5.09h1.6l.92-4.48h-.41c-1.44.12-2.92.24-4.39.24a23.13 23.13 0 0 1-3.41-.36 22.28 22.28 0 0 0-3.51-.36 11.43 11.43 0 0 0-7.28 2.5 9.64 9.64 0 0 0-3.39 7.79 8.57 8.57 0 0 0 4.21 7.43c-.5.45-2.52 2.43-2 4.92l1.31-1a9.46 9.46 0 0 1 5.87-1.86c2.63 0 5.29 1.71 5.29 4.52a4.32 4.32 0 0 1-4.51 4.34 6 6 0 0 1-4.59-2.47 10.58 10.58 0 0 0-4.29 4.15 10.84 10.84 0 0 0 8.5 4 12.32 12.32 0 0 0 8-2.71 9.47 9.47 0 0 0 .15-14.28 8.64 8.64 0 0 0 3.66-7.28zm-10.87 4.24c-2.9 0-4.6-1.59-4.62-4.25s1.76-4.11 4.62-4.14 4.53 1.58 4.54 4.14-1.69 4.23-4.54 4.25zm112.31-16.97h-.92v-.75h2.66v.75h-.89v3.24h-.85zm2.15-.75h1.13l1.07 2.9 1.06-2.9h1.12v4h-.84v-2.75l-1 2.75h-.7l-1-2.75v2.75h-.84z"/></g></g></svg>